# xmcd CD database file
#
# Track frame offsets:
#	150
#	16447
#	42834
#	69825
#	94401
#	113960
#	133178
#	149991
#	180403
#	203782
#	226589
#
# Disc length: 3352 seconds
#
# Revision: 2
# Processed by: cddbd v1.5.2PL0 Copyright (c) Steve Scherf et al.
# Submitted via: CDex 1.51
#
DISCID=9a0d160b
DTITLE=Lars Erstrand, Antti Sarpila Quintet - Jazz On The Platform - In The Tracks Of Benny Goodman
DYEAR=2006
DGENRE=Jazz
TTITLE0=Let's Dance
TTITLE1=What Can I Say After I Say I'm Sorry
TTITLE2=It Might As Well Be Spring
TTITLE3=Every Baby Loves My Body
TTITLE4=He's Funny That Way
TTITLE5=I've Got A Heartful Of Music
TTITLE6=Helsinki Jump
TTITLE7=Stompin' At The Savoy
TTITLE8=I Want To Be Happy
TTITLE9=Old Folks
TTITLE10=The World Is Waiting For The Sunshine
EXTD=YEAR: 2006
EXTT0=
EXTT1=
EXTT2=
EXTT3=
EXTT4=
EXTT5=
EXTT6=
EXTT7=
EXTT8=
EXTT9=
EXTT10=
PLAYORDER=
